<svg width="44" height="44" viewBox="0 0 44 44" fill="none" xmlns="http://www.w3.org/2000/svg">
<path fill-rule="evenodd" clip-rule="evenodd" d="M17.9264 38.5001H26.0737C31.7956 38.5001 34.6574 38.5001 36.7126 37.1526C37.5996 36.5717 38.3634 35.8216 38.9602 34.9453C40.3334 32.9286 40.3334 30.1181 40.3334 24.5008C40.3334 18.8834 40.3334 16.0729 38.9602 14.0563C38.3634 13.1799 37.5996 12.4298 36.7126 11.8489C35.3926 10.9818 33.7389 10.6719 31.2071 10.5619C29.9989 10.5619 28.9594 9.66359 28.7229 8.49942C28.5422 7.64668 28.0726 6.88249 27.3935 6.336C26.7144 5.78951 25.8674 5.49423 24.9957 5.50009H19.0044C17.1931 5.50009 15.6329 6.75592 15.2772 8.49942C15.0407 9.66359 14.0012 10.5619 12.7931 10.5619C10.2631 10.6719 8.60941 10.9836 7.28758 11.8489C6.40123 12.43 5.63808 13.1801 5.04175 14.0563C3.66675 16.0729 3.66675 18.8816 3.66675 24.5008C3.66675 30.1199 3.66675 32.9268 5.03991 34.9453C5.63391 35.8179 6.39658 36.5678 7.28758 37.1526C9.34275 38.5001 12.2046 38.5001 17.9264 38.5001ZM22.0001 17.0006C17.7816 17.0006 14.3606 20.3574 14.3606 24.4989C14.3606 28.6404 17.7834 32.0028 22.0001 32.0028C26.2167 32.0028 29.6396 28.6441 29.6396 24.5026C29.6396 20.3611 26.2167 17.0006 22.0001 17.0006ZM22.0001 19.9999C19.4701 19.9999 17.4167 22.0148 17.4167 24.5008C17.4167 26.9849 19.4701 28.9998 22.0001 28.9998C24.5301 28.9998 26.5834 26.9849 26.5834 24.5008C26.5834 22.0166 24.5301 19.9999 22.0001 19.9999ZM30.6571 18.5003C30.6571 17.6716 31.3409 17.0006 32.1861 17.0006H34.2211C35.0644 17.0006 35.7501 17.6716 35.7501 18.5003C35.7462 18.9016 35.5832 19.2849 35.2968 19.5661C35.0105 19.8473 34.6242 20.0033 34.2229 19.9999H32.1861C31.9872 20.0019 31.7899 19.9646 31.6054 19.8903C31.421 19.816 31.253 19.706 31.111 19.5668C30.969 19.4275 30.8558 19.2617 30.7779 19.0787C30.7001 18.8957 30.659 18.6991 30.6571 18.5003Z" fill="white"/>
</svg>
