<svg width="480" height="458" viewBox="0 0 480 458" fill="none" xmlns="http://www.w3.org/2000/svg">
<path d="M240 199.678V101.048C240 91.5798 247.675 83.9047 257.143 83.9047H301.714" stroke="#FF8FAB" stroke-width="102.857" stroke-linecap="round"/>
<path d="M250.286 194.63V96C250.286 86.5323 242.611 78.8572 233.143 78.8572H188.571" stroke="#F4FDFB" stroke-width="102.857" stroke-linecap="round"/>
<path d="M240 199.678V101.048C240 91.5798 232.325 83.9047 222.857 83.9047H178.286" stroke="#22C7A9" stroke-width="102.857" stroke-linecap="round"/>
<path d="M353.246 371.052C347.435 371.052 342.395 369.946 338.126 367.735C333.858 365.523 330.592 362.335 328.329 358.169C326.066 354.003 324.935 349.066 324.935 343.357C324.935 337.649 326.066 332.712 328.329 328.546C330.592 324.329 333.832 321.115 338.049 318.903C342.318 316.64 347.332 315.509 353.092 315.509C357.875 315.509 362.298 316.332 366.36 317.977C370.423 319.623 373.432 321.809 375.386 324.535C376.003 325.357 376.312 326.206 376.312 327.08C376.312 328.366 375.618 329.523 374.229 330.552C373.612 331.015 372.84 331.246 371.915 331.246C371.143 331.246 370.372 331.092 369.6 330.783C368.829 330.423 368.186 329.935 367.672 329.317C365.923 327.312 363.892 325.872 361.578 324.997C359.263 324.072 356.435 323.609 353.092 323.609C347.486 323.609 343.115 325.357 339.978 328.855C336.84 332.3 335.272 337.135 335.272 343.357C335.272 349.529 336.84 354.337 339.978 357.783C343.166 361.229 347.589 362.952 353.246 362.952C357.926 362.952 361.578 362.052 364.2 360.252C366.875 358.452 368.212 355.957 368.212 352.769V351.072C368.212 349.992 367.955 349.246 367.44 348.835C366.978 348.423 366.155 348.217 364.972 348.217H354.866C353.426 348.217 352.295 347.883 351.472 347.215C350.649 346.495 350.238 345.517 350.238 344.283C350.238 342.997 350.623 342.02 351.395 341.352C352.218 340.632 353.375 340.272 354.866 340.272H369.832C372.815 340.272 375 340.915 376.389 342.2C377.778 343.435 378.472 345.415 378.472 348.14V351.149C378.472 355.057 377.418 358.529 375.309 361.563C373.2 364.546 370.218 366.886 366.36 368.583C362.555 370.229 358.183 371.052 353.246 371.052Z" fill="#22C7A9"/>
<path d="M270.678 369.979C269.158 369.979 267.942 369.581 267.03 368.785C266.118 367.99 265.662 366.896 265.662 365.504V337.387C265.662 330.774 267.765 325.603 271.969 321.874C276.174 318.145 282 316.28 289.446 316.28C296.893 316.28 302.719 318.145 306.924 321.874C311.128 325.603 313.23 330.774 313.23 337.387V365.504C313.23 366.896 312.775 367.99 311.863 368.785C310.951 369.581 309.735 369.979 308.215 369.979C306.696 369.979 305.454 369.581 304.492 368.785C303.58 367.94 303.124 366.846 303.124 365.504V337.163C303.124 332.937 301.959 329.705 299.629 327.467C297.298 325.23 293.904 324.111 289.446 324.111C284.988 324.111 281.594 325.23 279.264 327.467C276.934 329.705 275.769 332.937 275.769 337.163V365.504C275.769 366.846 275.287 367.94 274.325 368.785C273.413 369.581 272.197 369.979 270.678 369.979Z" fill="#22C7A9"/>
<path d="M243.48 369.979C241.96 369.979 240.745 369.581 239.833 368.785C238.921 367.99 238.465 366.896 238.465 365.504V320.755C238.465 319.363 238.921 318.269 239.833 317.474C240.745 316.678 241.96 316.28 243.48 316.28C244.949 316.28 246.165 316.678 247.128 317.474C248.09 318.269 248.571 319.363 248.571 320.755V365.504C248.571 366.896 248.09 367.99 247.128 368.785C246.165 369.581 244.949 369.979 243.48 369.979Z" fill="#22C7A9"/>
<path d="M217.013 370.286C215.493 370.286 214.278 369.888 213.366 369.092C212.454 368.297 211.998 367.203 211.998 365.811V321.062C211.998 319.67 212.454 318.576 213.366 317.78C214.278 316.985 215.493 316.587 217.013 316.587C218.482 316.587 219.698 316.985 220.661 317.78C221.623 318.576 222.104 319.67 222.104 321.062V365.811C222.104 367.203 221.623 368.297 220.661 369.092C219.698 369.888 218.482 370.286 217.013 370.286Z" fill="#22C7A9"/>
<path d="M163.375 370.286C161.855 370.286 160.64 369.888 159.728 369.092C158.816 368.297 158.36 367.203 158.36 365.811V321.062C158.36 319.67 158.816 318.576 159.728 317.78C160.64 316.985 161.855 316.587 163.375 316.587C164.844 316.587 166.06 316.985 167.023 317.78C167.985 318.576 168.466 319.67 168.466 321.062V365.811C168.466 367.203 167.985 368.297 167.023 369.092C166.06 369.888 164.844 370.286 163.375 370.286Z" fill="#22C7A9"/>
<path d="M178.215 334.638L188.314 344.063C189.252 344.938 190.731 344.847 191.554 343.863L203.246 329.88" stroke="#22C7A9" stroke-width="7.59874" stroke-linecap="round"/>
<path d="M96.5847 369.904C95.0649 369.904 93.8491 369.506 92.9373 368.711C92.0254 367.915 91.5695 366.821 91.5695 365.429V339.326C91.5695 332.116 93.6718 326.473 97.8765 322.396C102.081 318.319 107.932 316.28 115.43 316.28C120.343 316.28 124.599 317.2 128.195 319.04C131.792 320.879 134.528 323.539 136.402 327.02C138.327 330.5 139.29 334.602 139.29 339.326V365.429C139.29 366.821 138.834 367.915 137.922 368.711C137.01 369.506 135.794 369.904 134.274 369.904C132.755 369.904 131.514 369.506 130.551 368.711C129.639 367.865 129.183 366.772 129.183 365.429V353.272H101.676V365.429C101.676 366.772 101.195 367.865 100.232 368.711C99.3202 369.506 98.1044 369.904 96.5847 369.904ZM129.183 345.591V339.102C129.183 334.13 128.018 330.401 125.688 327.915C123.408 325.379 119.989 324.111 115.43 324.111C106.26 324.111 101.676 329.108 101.676 339.102V345.591H129.183Z" fill="#22C7A9"/>
<path d="M58.6779 369.978C57.1582 369.978 55.9424 369.581 55.0305 368.785C54.1187 367.99 53.6627 366.896 53.6627 365.504V324.708H38.9972C37.5281 324.708 36.3629 324.385 35.5017 323.738C34.6912 323.042 34.2859 322.097 34.2859 320.904C34.2859 319.661 34.6912 318.716 35.5017 318.07C36.3123 317.374 37.4774 317.026 38.9972 317.026H78.4346C79.9544 317.026 81.1195 317.374 81.93 318.07C82.7406 318.716 83.1458 319.661 83.1458 320.904C83.1458 322.097 82.7153 323.042 81.8541 323.738C81.0435 324.385 79.9037 324.708 78.4346 324.708H63.7691V365.504C63.7691 366.846 63.2878 367.94 62.3253 368.785C61.4135 369.581 60.1977 369.978 58.6779 369.978Z" fill="#22C7A9"/>
<path d="M410.646 307.067H423.609C424.596 307.067 425.397 307.868 425.397 308.855V313.464C425.397 314.585 424.378 315.436 423.27 315.272C421.548 315.017 419.096 314.721 417.128 314.745C415.224 314.768 412.701 315.067 410.945 315.31C409.85 315.461 408.859 314.616 408.859 313.512V308.855C408.859 307.868 409.659 307.067 410.646 307.067Z" fill="#FF8FAB"/>
<path d="M417.295 369.979C411.368 369.979 406.252 368.86 401.946 366.622C397.69 364.335 394.448 361.178 392.219 357.151C389.99 353.074 388.876 348.4 388.876 343.129C388.876 337.859 389.99 333.21 392.219 329.183C394.448 325.106 397.69 321.948 401.946 319.711C406.252 317.424 411.368 316.28 417.295 316.28C423.222 316.28 428.313 317.424 432.568 319.711C436.874 321.948 440.142 325.106 442.371 329.183C444.6 333.21 445.714 337.859 445.714 343.129C445.714 348.4 444.6 353.074 442.371 357.151C440.142 361.178 436.874 364.335 432.568 366.622C428.313 368.86 423.222 369.979 417.295 369.979ZM417.295 362.148C423.07 362.148 427.553 360.457 430.745 357.076C433.936 353.645 435.532 348.996 435.532 343.129C435.532 337.213 433.86 332.564 430.517 329.183C427.224 325.802 422.563 324.111 416.535 324.111C411.013 324.111 406.707 325.852 403.617 329.332C400.578 332.763 399.058 337.362 399.058 343.129C399.058 348.996 400.654 353.645 403.845 357.076C407.037 360.457 411.52 362.148 417.295 362.148Z" fill="#22C7A9"/>
<path d="M417.128 326.667C417.128 326.173 417.528 325.771 418.021 325.797C421.176 325.962 424.23 327.002 426.837 328.808C429.444 330.614 431.49 333.107 432.754 336.003C432.951 336.456 432.715 336.972 432.253 337.146L418.336 342.369C417.751 342.588 417.128 342.156 417.128 341.532V326.667Z" fill="#FF8FAB"/>
<rect width="11.5676" height="13.6759" rx="5.78382" transform="matrix(0.818308 -0.57478 0.589158 0.808018 390.532 318.103)" fill="#22C7A9"/>
<circle cx="243.475" cy="308.867" r="4.87112" fill="#FF8FAB"/>
<path d="M158.394 457.771C153.354 457.771 148.623 456.949 144.2 455.303C139.777 453.606 135.946 451.189 132.706 448.051C131.934 447.28 131.549 446.406 131.549 445.429C131.549 444.297 132.063 443.217 133.091 442.189C133.914 441.366 134.814 440.954 135.791 440.954C136.82 440.954 138.054 441.546 139.494 442.729C141.911 444.94 144.766 446.663 148.057 447.897C151.4 449.08 154.846 449.671 158.394 449.671C161.789 449.671 164.437 449.106 166.34 447.974C168.243 446.791 169.194 445.146 169.194 443.037C169.194 440.826 168.166 439.051 166.109 437.714C164.051 436.326 160.554 435.091 155.617 434.011C147.851 432.314 142.194 430.077 138.646 427.3C135.149 424.523 133.4 420.949 133.4 416.577C133.4 413.8 134.326 411.331 136.177 409.171C138.029 406.96 140.6 405.263 143.891 404.08C147.234 402.846 151.04 402.229 155.309 402.229C160.091 402.229 164.334 403.026 168.037 404.62C171.791 406.163 174.646 408.349 176.6 411.177C177.269 412.257 177.603 413.183 177.603 413.954C177.551 415.24 176.909 416.346 175.674 417.271C175.006 417.734 174.234 417.966 173.36 417.966C171.766 417.966 170.454 417.349 169.426 416.114C167.934 414.314 165.929 412.9 163.409 411.871C160.94 410.843 158.24 410.329 155.309 410.329C151.657 410.329 148.803 410.894 146.746 412.026C144.74 413.106 143.737 414.623 143.737 416.577C143.737 418.531 144.714 420.151 146.669 421.437C148.674 422.671 152.12 423.854 157.006 424.986C162.406 426.271 166.751 427.737 170.043 429.383C173.334 430.977 175.726 432.88 177.217 435.091C178.76 437.303 179.531 439.951 179.531 443.037C179.531 445.969 178.657 448.566 176.909 450.829C175.16 453.04 172.691 454.763 169.503 455.997C166.314 457.18 162.611 457.771 158.394 457.771ZM192.096 457.771C190.553 457.771 189.318 457.36 188.393 456.537C187.467 455.714 187.004 454.583 187.004 453.143V424.06C187.004 417.22 189.138 411.871 193.407 408.014C197.676 404.157 203.59 402.229 211.15 402.229C218.71 402.229 224.624 404.157 228.893 408.014C233.161 411.871 235.296 417.22 235.296 424.06V453.143C235.296 454.583 234.833 455.714 233.907 456.537C232.981 457.36 231.747 457.771 230.204 457.771C228.661 457.771 227.401 457.36 226.424 456.537C225.498 455.663 225.036 454.531 225.036 453.143V423.829C225.036 419.457 223.853 416.114 221.487 413.8C219.121 411.486 215.676 410.329 211.15 410.329C206.624 410.329 203.178 411.486 200.813 413.8C198.447 416.114 197.264 419.457 197.264 423.829V453.143C197.264 454.531 196.776 455.663 195.798 456.537C194.873 457.36 193.638 457.771 192.096 457.771ZM248.22 457.694C246.677 457.694 245.443 457.283 244.517 456.46C243.591 455.637 243.129 454.506 243.129 453.066V426.066C243.129 418.609 245.263 412.771 249.531 408.554C253.8 404.337 259.74 402.229 267.351 402.229C272.34 402.229 276.66 403.18 280.311 405.083C283.963 406.986 286.74 409.737 288.643 413.337C290.597 416.937 291.574 421.18 291.574 426.066V453.066C291.574 454.506 291.111 455.637 290.186 456.46C289.26 457.283 288.026 457.694 286.483 457.694C284.94 457.694 283.68 457.283 282.703 456.46C281.777 455.586 281.314 454.454 281.314 453.066V440.491H253.389V453.066C253.389 454.454 252.9 455.586 251.923 456.46C250.997 457.283 249.763 457.694 248.22 457.694ZM281.314 432.546V425.834C281.314 420.691 280.131 416.834 277.766 414.263C275.451 411.64 271.98 410.329 267.351 410.329C258.043 410.329 253.389 415.497 253.389 425.834V432.546H281.314ZM304.956 457.771C303.413 457.771 302.179 457.36 301.253 456.537C300.328 455.714 299.865 454.583 299.865 453.143V414.417C299.865 410.817 300.893 408.014 302.951 406.009C305.059 404.003 307.965 403 311.668 403H324.705C332.522 403 338.462 404.62 342.525 407.86C346.588 411.1 348.619 415.857 348.619 422.131C348.619 428.406 346.639 433.163 342.679 436.403C338.719 439.643 332.882 441.263 325.168 441.263H310.125V453.143C310.125 454.531 309.636 455.663 308.659 456.537C307.733 457.36 306.499 457.771 304.956 457.771ZM325.091 433.317C333.885 433.317 338.282 429.589 338.282 422.131C338.282 414.674 333.885 410.946 325.091 410.946H313.442C312.413 410.946 311.591 411.28 310.973 411.949C310.408 412.617 310.125 413.543 310.125 414.726V433.317H325.091Z" fill="#22C7A9"/>
</svg>
